<svg width="20" height="21" viewBox="0 0 20 21" fill="none" xmlns="http://www.w3.org/2000/svg">
<path d="M20 4.71986L15.4 0.859863L14.11 2.38986L18.71 6.24986L20 4.71986ZM5.88 2.38986L4.6 0.859863L0 4.70986L1.29 6.23986L5.88 2.38986ZM10.5 6.99986H9V12.9999L13.75 15.8499L14.5 14.6199L10.5 12.2499V6.99986ZM10 2.99986C5.03 2.99986 1 7.02986 1 11.9999C1 16.9699 5.02 20.9999 10 20.9999C14.97 20.9999 19 16.9699 19 11.9999C19 7.02986 14.97 2.99986 10 2.99986ZM10 18.9999C6.13 18.9999 3 15.8699 3 11.9999C3 8.12986 6.13 4.99986 10 4.99986C13.87 4.99986 17 8.12986 17 11.9999C17 15.8699 13.87 18.9999 10 18.9999Z" fill="#20484F"/>
</svg>
